<?xml version="1.0" standalone="no"?>
<!DOCTYPE svg PUBLIC "-//W3C//DTD SVG 20010904//EN"
 "http://www.w3.org/TR/2001/REC-SVG-20010904/DTD/svg10.dtd">
<svg version="1.0" xmlns="http://www.w3.org/2000/svg"
 width="401.000000pt" height="401.000000pt" viewBox="0 0 401.000000 401.000000"
 preserveAspectRatio="xMidYMid meet">
<metadata>
Created by potrace 1.14, written by Peter Selinger 2001-2017
</metadata>
<g transform="translate(0.000000,401.000000) scale(0.100000,-0.100000)"
fill="#000000" stroke="none">
<path d="M0 3630 l0 -378 28 13 c15 8 87 18 160 24 74 6 138 13 143 16 5 4 31
6 59 7 37 0 50 4 50 15 0 9 6 12 19 8 13 -4 23 2 34 19 18 27 66 43 77 26 5
-8 9 -6 14 5 4 10 12 15 21 11 13 -5 93 10 160 31 11 3 56 6 100 7 44 1 85 4
92 9 6 4 18 4 27 1 9 -3 16 -2 16 2 0 5 15 10 33 10 17 1 73 3 123 5 73 3 95
1 117 -13 16 -11 28 -14 32 -8 12 19 52 11 58 -12 9 -32 -9 -38 -59 -21 -59
20 -184 5 -184 -23 0 -8 -9 -14 -19 -14 -11 0 -23 -9 -26 -20 -7 -22 -20 -26
-30 -10 -3 6 -2 10 3 10 6 0 13 7 16 16 5 14 1 16 -30 11 -28 -5 -34 -3 -26 5
7 7 12 16 12 20 0 13 -20 9 -36 -7 -9 -8 -26 -15 -39 -15 -13 0 -27 -5 -30
-10 -4 -6 -11 -8 -16 -5 -5 4 -9 2 -9 -3 0 -12 77 -14 84 -3 4 5 16 7 27 4 19
-5 20 -7 4 -16 -14 -8 -15 -11 -4 -18 9 -6 -4 -9 -36 -9 -34 0 -58 -7 -75 -20
-14 -11 -32 -20 -40 -20 -17 0 -40 -19 -40 -32 0 -4 5 -8 10 -8 6 0 10 6 10
14 0 11 13 14 55 13 33 -1 59 3 63 10 9 15 62 12 62 -4 0 -7 -8 -12 -17 -11
-37 3 -54 -2 -47 -14 5 -8 -2 -10 -22 -6 -16 3 -42 2 -59 -2 -17 -5 -22 -8
-11 -9 10 0 25 -9 32 -18 12 -15 15 -16 23 -4 7 11 15 12 33 4 21 -9 20 -10
-17 -17 -26 -5 -41 -4 -43 3 -2 6 -11 11 -20 10 -11 0 -12 -2 -4 -6 18 -7 15
-21 -8 -28 -11 -4 -18 -10 -15 -15 7 -11 -27 -30 -63 -36 -40 -8 -40 -14 1
-14 20 0 39 5 42 10 3 6 11 10 17 10 7 0 6 -6 -2 -15 -7 -8 -19 -15 -26 -15
-8 0 -14 -5 -14 -11 0 -6 9 -9 20 -6 11 3 18 1 14 -4 -7 -12 -41 -12 -49 1 -8
13 -49 9 -64 -7 -9 -10 -7 -13 14 -13 33 0 29 -20 -8 -38 -33 -16 -36 -36 -4
-26 52 16 68 24 63 33 -3 5 1 12 10 15 25 9 34 7 34 -8 0 -8 4 -16 10 -18 5
-1 -1 -16 -13 -32 -23 -28 -32 -31 -132 -42 -27 -2 -77 -9 -110 -13 -33 -5
-69 -9 -80 -9 -25 0 -88 -23 -108 -40 -8 -7 -22 -10 -31 -6 -9 3 -22 2 -29 -4
-7 -6 -47 -14 -89 -18 -56 -5 -82 -12 -94 -25 -10 -11 -23 -19 -29 -19 -7 0
-24 -9 -39 -21 -14 -11 -30 -17 -36 -14 -5 3 -10 1 -10 -4 0 -6 -6 -11 -13
-11 -7 0 -14 -13 -15 -30 -2 -19 2 -30 11 -30 35 0 89 -42 73 -57 -2 -3 -23
-7 -45 -10 l-41 -6 0 -54 c0 -42 3 -54 14 -50 10 4 12 -3 10 -26 -2 -17 -9
-36 -14 -41 -6 -6 -10 -19 -10 -30 0 -18 1 -18 25 4 21 19 25 21 25 7 0 -9 5
-17 10 -17 6 0 10 -5 10 -11 0 -5 -5 -7 -12 -3 -7 5 -8 3 -3 -5 8 -14 -13 -61
-27 -61 -5 0 -13 10 -18 23 -5 14 -9 -79 -9 -255 -1 -174 3 -279 9 -283 6 -3
10 3 10 14 0 11 4 22 8 25 11 7 52 -40 52 -59 0 -30 34 -12 45 24 5 16 4 21
-4 17 -7 -5 -11 1 -11 14 0 13 6 20 14 18 8 -2 23 7 34 20 18 20 23 21 48 10
47 -21 53 -30 33 -51 -14 -15 -21 -17 -37 -8 -12 6 -25 11 -30 11 -14 0 -14
-94 1 -114 17 -23 37 -13 37 17 0 39 23 71 50 71 17 0 26 -7 31 -24 5 -16 7
-19 8 -7 1 9 7 17 15 17 18 0 26 22 26 67 0 20 3 34 6 30 16 -15 35 24 28 58
-4 21 -2 35 4 35 14 0 22 -25 22 -73 l1 -42 17 35 c10 19 24 51 31 70 8 19 21
43 29 53 14 16 16 16 34 1 10 -10 18 -29 18 -44 0 -16 7 -30 16 -34 10 -4 14
-16 12 -38 -2 -27 -7 -32 -23 -30 -11 2 -30 5 -42 5 -13 1 -22 7 -22 12 1 6 1
19 0 30 -2 33 -21 -4 -21 -42 0 -40 9 -63 25 -63 16 0 27 -38 13 -46 -5 -3 -7
-12 -4 -20 6 -17 1 -17 -25 -4 -10 6 -19 16 -19 23 0 7 -8 21 -16 32 -10 13
-15 15 -13 5 2 -8 -1 -24 -7 -35 -13 -24 -6 -115 8 -115 5 0 12 9 15 20 14 53
30 -2 26 -90 -2 -39 18 -110 30 -103 5 3 18 -5 28 -18 18 -22 20 -23 33 -7 7
10 16 18 19 18 3 0 7 -35 9 -77 2 -54 7 -78 17 -81 11 -4 12 3 7 32 -6 29 -4
36 9 36 8 0 15 6 15 14 0 8 5 18 10 21 16 10 42 -62 35 -98 -7 -34 19 -117 36
-117 12 0 11 17 -1 41 -8 14 -7 27 5 49 20 38 49 39 64 2 12 -28 76 -71 88
-59 3 4 -3 17 -15 30 -25 27 -28 47 -8 47 18 0 29 27 14 36 -7 4 -2 14 13 25
23 18 25 17 50 -7 18 -17 29 -22 34 -14 10 17 -3 60 -19 60 -8 0 -21 11 -30
25 -13 19 -13 25 -3 25 7 0 18 12 24 28 11 29 16 23 27 -30 6 -28 27 -44 77
-58 42 -12 36 7 -8 25 -28 12 -34 18 -24 24 7 5 10 14 6 20 -4 7 -2 18 4 25 6
7 9 21 5 30 -8 20 -1 20 37 0 42 -21 45 -13 9 27 -34 38 -37 54 -14 63 30 12
63 6 74 -13 7 -13 16 -17 31 -14 l22 6 -23 17 c-15 12 -21 23 -17 35 5 11 -1
23 -15 36 l-23 18 23 1 c32 0 27 14 -19 53 -24 21 -36 38 -30 42 7 4 -9 25
-38 51 -34 31 -57 64 -76 109 -21 50 -33 65 -54 70 -29 7 -38 5 -32 -10 2 -5
8 -50 12 -100 4 -49 10 -102 14 -117 10 -40 -18 -37 -37 3 -11 21 -17 26 -21
16 -7 -18 -57 -11 -57 9 0 14 -42 64 -54 64 -11 0 -36 27 -36 39 0 6 -9 11
-20 11 -13 0 -20 7 -20 20 0 11 -5 20 -11 20 -7 0 -8 -7 -3 -17 14 -32 17
-114 4 -126 -17 -18 -40 19 -40 63 0 42 -27 103 -41 95 -5 -4 -9 6 -9 20 0 15
-4 24 -10 20 -13 -8 -13 16 0 51 8 19 14 24 21 17 7 -7 21 -7 45 0 40 12 46
37 9 37 -14 0 -25 4 -25 9 0 5 -10 13 -22 17 -33 10 -48 28 -37 45 15 24 11
42 -8 35 -12 -4 -10 1 6 15 21 17 22 22 10 30 -7 5 -24 7 -36 4 -13 -3 -35 -8
-49 -11 -25 -6 -26 -5 -20 23 7 28 5 29 -22 25 -24 -3 -30 0 -35 18 -6 24 11
60 29 60 6 0 18 -10 26 -21 13 -20 16 -21 51 -8 20 7 37 17 37 21 0 15 38 8
44 -8 4 -9 13 -14 21 -10 8 3 15 1 15 -4 0 -6 16 -10 35 -10 34 0 48 -14 23
-23 -10 -3 -10 -7 -1 -17 9 -9 14 -8 22 9 9 16 18 19 44 14 40 -7 57 -20 57
-43 0 -14 8 -18 38 -18 73 -1 78 -4 80 -39 2 -18 -2 -33 -8 -33 -19 0 -10 -29
13 -36 43 -15 48 -13 41 9 -3 12 -12 32 -20 43 -15 24 -9 35 12 27 12 -4 14 2
9 33 -18 112 -18 112 3 123 11 6 27 8 36 5 14 -5 19 9 29 86 1 8 9 15 17 15
26 1 42 16 31 28 -12 15 -6 80 9 104 9 15 10 12 6 -16 -5 -26 -3 -32 8 -28 10
4 12 0 9 -14 -3 -10 0 -26 7 -34 10 -12 8 -17 -13 -26 -14 -6 -27 -19 -30 -28
-3 -9 -8 -24 -12 -33 -10 -25 10 -23 34 4 18 19 21 19 27 4 3 -9 14 -15 23
-14 12 2 17 -6 19 -32 4 -58 11 -80 25 -74 8 3 13 -4 12 -18 0 -13 5 -23 10
-23 6 0 9 7 7 15 -1 8 -5 44 -8 80 -6 57 -4 69 17 102 13 20 29 37 35 38 6 0
38 29 70 66 53 59 60 63 71 48 10 -14 16 -15 25 -6 9 9 8 15 -8 27 -16 12 -17
16 -4 24 9 7 19 6 27 -1 9 -7 13 -7 13 2 0 10 3 10 15 0 15 -13 19 -8 16 22
-2 12 3 16 13 12 12 -5 14 3 11 45 -4 43 -1 54 16 69 12 9 26 22 33 27 17 15
95 65 101 65 4 0 13 7 21 15 9 8 23 15 32 15 9 0 26 12 36 27 l19 26 -24 -6
c-14 -4 -38 -3 -54 2 -27 7 -31 4 -45 -25 -13 -27 -108 -114 -125 -114 -9 0
-5 72 7 112 6 22 20 45 29 51 13 8 15 15 8 29 -8 15 -6 18 10 18 24 0 36 16
20 26 -14 8 -4 65 13 75 7 5 10 9 8 11 -3 2 -22 16 -42 31 -20 15 -46 27 -57
27 -12 0 -21 5 -21 10 0 6 -6 10 -14 10 -8 0 -17 4 -20 8 -3 5 8 6 24 4 18 -2
27 -9 23 -15 -4 -6 0 -8 10 -4 19 7 87 -19 87 -33 0 -6 7 -10 16 -10 10 0 14
-6 10 -15 -3 -8 -1 -15 3 -15 9 0 24 30 19 35 -2 2 -19 11 -39 22 -19 10 -34
24 -31 31 2 6 -3 15 -12 18 -30 11 -16 20 27 16 44 -5 97 -35 97 -56 0 -7 12
-18 28 -25 15 -8 36 -18 47 -24 13 -8 122 -12 321 -14 272 -1 350 -6 437 -28
21 -6 27 -4 27 10 0 9 4 14 9 11 18 -11 120 27 136 50 19 29 35 31 28 4 -4
-15 0 -20 14 -20 10 0 25 6 31 12 10 10 15 10 21 -1 6 -10 10 -10 16 -1 4 6
13 9 20 6 7 -2 16 -2 19 1 3 3 20 7 38 9 18 2 47 7 63 10 56 11 168 12 204 1
20 -5 47 -9 60 -9 24 2 121 -45 121 -59 0 -5 17 -11 38 -15 46 -8 112 -35 112
-46 0 -5 12 -1 27 9 19 13 28 14 31 5 5 -15 29 -16 34 -2 3 10 11 13 78 25
l35 7 -42 -24 c-23 -12 -71 -38 -105 -57 -35 -18 -67 -37 -73 -42 -5 -5 -17
-9 -27 -9 -10 0 -18 -5 -18 -11 0 -20 87 -3 122 22 18 14 47 30 63 38 17 7 38
17 47 22 28 14 41 11 35 -10 -5 -21 25 -61 47 -61 17 0 38 -25 29 -34 -10 -10
-12 -36 -3 -36 5 0 10 -8 12 -17 3 -14 8 -12 22 12 l17 30 -5 -51 -5 -52 39
-17 c25 -11 37 -22 33 -31 -3 -9 2 -14 13 -14 16 -1 14 -3 -6 -15 l-25 -13 28
-7 c17 -5 29 -16 33 -30 4 -17 15 -24 46 -28 22 -3 46 -14 53 -24 12 -15 14
71 15 605 l0 622 -880 0 -880 0 -2 -23 c0 -12 -2 -33 -4 -47 -11 -95 -9 -142
9 -151 20 -11 23 -55 5 -62 -10 -3 -10 -7 1 -20 25 -31 26 -277 0 -277 -20 0
-53 86 -56 150 -1 36 -4 81 -5 100 -2 19 2 38 7 42 6 4 0 8 -12 8 -20 0 -21 3
-13 26 14 36 13 111 -2 116 -7 3 -13 20 -13 39 -3 88 -5 99 -20 99 -8 0 -12
-6 -9 -14 3 -8 1 -17 -5 -21 -7 -3 -11 2 -11 14 0 19 -6 21 -70 21 l-69 0 -7
-35 c-5 -29 -9 -33 -24 -25 -10 5 -21 21 -24 35 l-6 25 -825 0 c-594 0 -825
-3 -825 -11 0 -8 -4 -8 -13 0 -9 6 -60 11 -135 10 l-122 0 0 -379z m1045 360
c3 -5 1 -10 -4 -10 -6 0 -11 5 -11 10 0 6 2 10 4 10 3 0 8 -4 11 -10z m1095
-83 c0 -18 -5 -39 -10 -47 -7 -11 -10 0 -10 38 0 33 4 51 10 47 6 -3 10 -21
10 -38z m-1090 19 c0 -3 -4 -8 -10 -11 -5 -3 -10 -1 -10 4 0 6 5 11 10 11 6 0
10 -2 10 -4z m911 -65 c-7 -12 -8 -22 -1 -26 13 -8 -10 -57 -24 -52 -15 6 -9
64 12 111 16 37 17 38 20 13 2 -14 -2 -35 -7 -46z m-1561 -21 c0 -63 -2 -70
-19 -70 -27 0 -31 10 -21 50 4 19 8 29 9 23 1 -7 6 -13 11 -13 6 0 9 3 9 8 -3
18 1 72 6 72 3 0 5 -31 5 -70z m-304 -249 c5 1 14 0 19 -1 6 -1 24 -3 40 -4
29 -1 30 -3 33 -53 3 -58 -14 -106 -29 -82 -5 8 -9 10 -9 5 0 -5 -9 -1 -19 8
-11 10 -24 15 -29 12 -5 -3 -14 7 -19 22 -31 86 -33 96 -21 103 7 5 15 3 19
-2 3 -6 10 -9 15 -8z m174 -25 c0 -57 -25 -82 -40 -40 -15 38 -4 84 21 84 16
0 19 -7 19 -44z m1683 -48 c-3 -15 -9 -25 -14 -23 -4 3 -3 17 3 30 14 31 18
28 11 -7z m-528 -68 c3 -5 -3 -10 -14 -10 -12 0 -21 5 -21 10 0 6 6 10 14 10
8 0 18 -4 21 -10z m945 -41 c0 -11 -4 -17 -10 -14 -5 3 -10 13 -10 21 0 8 5
14 10 14 6 0 10 -9 10 -21z m-423 5 c-3 -3 -12 -4 -19 -1 -8 3 -5 6 6 6 11 1
17 -2 13 -5z m-700 -86 c-3 -8 -6 -5 -6 6 -1 11 2 17 5 13 3 -3 4 -12 1 -19z
m103 10 c0 -4 -16 -8 -35 -8 -19 0 -35 4 -35 10 0 5 16 9 35 8 19 -1 35 -5 35
-10z m-133 -18 c-1 -11 -6 -20 -12 -21 -5 0 -47 -3 -93 -5 -74 -4 -83 -2 -80
12 3 15 15 17 86 15 52 -1 82 2 82 8 0 6 4 11 9 11 6 0 9 -9 8 -20z m1153 10
c0 -5 -7 -10 -16 -10 -8 0 -12 5 -9 10 3 6 10 10 16 10 5 0 9 -4 9 -10z m-920
-10 c0 -5 -2 -10 -4 -10 -3 0 -8 5 -11 10 -3 6 -1 10 4 10 6 0 11 -4 11 -10z
m0 -26 c0 -2 -12 -4 -26 -4 -14 0 -23 4 -20 9 6 8 46 4 46 -5z m2330 -59 c20
-24 6 -28 -15 -5 -10 11 -13 20 -8 20 6 0 16 -7 23 -15z m30 -66 c0 -5 -4 -9
-10 -9 -5 0 -10 7 -10 16 0 8 5 12 10 9 6 -3 10 -10 10 -16z m-2350 -19 c0 -5
-5 -10 -11 -10 -5 0 -7 5 -4 10 3 6 8 10 11 10 2 0 4 -4 4 -10z m-217 -223 c3
-8 1 -20 -4 -28 -6 -10 -9 -7 -9 14 0 29 5 35 13 14z m-53 -81 c0 -3 -4 -8
-10 -11 -5 -3 -10 -1 -10 4 0 6 5 11 10 11 6 0 10 -2 10 -4z m-718 -28 c-18
-18 -15 -25 17 -31 34 -7 46 -31 25 -52 -19 -18 -35 -20 -28 -2 3 8 -17 18
-63 29 -61 16 -73 16 -123 3 -30 -8 -64 -26 -76 -39 l-22 -23 34 -17 c19 -9
41 -16 49 -16 8 0 14 -3 14 -7 -4 -23 3 -35 16 -29 8 3 20 -3 27 -13 7 -10 22
-21 33 -23 17 -4 18 -6 4 -12 -45 -20 -209 62 -209 104 0 11 -3 19 -7 19 -24
-4 -32 4 -30 29 3 40 76 74 169 78 39 2 73 6 76 9 3 3 28 5 56 5 39 0 47 -3
38 -12z m1003 2 c-3 -5 -11 -10 -16 -10 -6 0 -7 5 -4 10 3 6 11 10 16 10 6 0
7 -4 4 -10z m-355 -126 c0 -8 -4 -14 -9 -14 -11 0 -22 26 -14 34 9 9 23 -3 23
-20z m-165 -73 c3 -5 1 -12 -5 -16 -5 -3 -10 1 -10 9 0 18 6 21 15 7z m-867
-85 c-7 -8 -15 -12 -17 -11 -5 6 10 25 20 25 5 0 4 -6 -3 -14z m290 -49 c4
-19 -6 -21 -27 -8 -16 10 -5 34 12 28 7 -2 13 -11 15 -20z m523 -17 c23 0 24
-6 4 -26 -11 -11 -12 -20 -5 -34 5 -10 6 -28 2 -40 -8 -21 -8 -21 -32 5 -22
23 -23 29 -12 58 7 19 13 42 13 53 1 17 2 17 6 2 2 -10 13 -18 24 -18z m-788
-149 c6 -23 -35 -67 -52 -56 -17 10 -13 29 9 53 26 27 36 28 43 3z m67 -47 c0
-14 -5 -24 -11 -22 -6 2 -10 7 -10 11 1 4 1 14 1 22 0 8 5 15 10 15 6 0 10
-12 10 -26z m387 -484 c13 -20 8 -50 -9 -50 -6 0 -8 9 -5 20 3 11 1 18 -4 14
-5 -3 -9 4 -9 15 0 26 12 27 27 1z m456 -14 c31 -40 26 -51 -14 -31 -34 18
-41 28 -33 49 9 23 19 20 47 -18z m-543 -82 c0 -8 -5 -12 -10 -9 -6 4 -8 11
-5 16 9 14 15 11 15 -7z m320 -236 c0 -17 -3 -28 -7 -25 -9 10 -11 67 -1 61 4
-3 8 -19 8 -36z m-61 -1 c8 -11 6 -13 -12 -11 -30 3 -29 3 -22 14 8 14 20 13
34 -3z"/>
<path d="M1636 3282 c-3 -6 3 -12 15 -15 12 -3 19 -1 16 6 -5 15 -24 20 -31 9z"/>
<path d="M1710 3260 c8 -5 20 -10 25 -10 6 0 3 5 -5 10 -8 5 -19 10 -25 10 -5
0 -3 -5 5 -10z"/>
<path d="M2451 3209 c-27 -11 -43 -29 -66 -76 -9 -18 -20 -35 -25 -38 -16 -10
-12 -35 12 -74 37 -59 34 -74 -25 -133 -44 -45 -63 -56 -108 -66 -30 -6 -61
-11 -70 -10 -45 4 -302 -57 -337 -80 -37 -24 -54 -67 -43 -107 5 -19 6 -50 1
-70 -8 -38 -2 -49 24 -39 12 4 15 2 10 -9 -7 -20 -35 -30 -48 -17 -5 5 -15 10
-20 10 -6 0 -5 -4 3 -9 12 -8 13 -14 3 -36 -20 -43 -16 -58 13 -51 21 5 25 3
25 -15 0 -14 5 -19 14 -16 11 4 16 -3 18 -29 2 -19 6 -34 11 -34 7 0 19 -10
82 -69 34 -32 137 -80 185 -86 25 -3 66 -10 92 -16 42 -10 50 -8 77 12 36 26
35 29 -10 34 -21 3 -42 14 -54 30 -12 14 -28 25 -37 25 -9 0 -19 4 -22 9 -3 4
-27 14 -53 21 -56 15 -119 45 -129 61 -5 8 -1 8 14 0 22 -12 120 -16 109 -4
-11 11 31 34 68 37 20 2 42 12 50 22 13 17 16 17 25 4 7 -11 10 -11 10 -2 0
17 -12 20 -103 26 -82 6 -99 15 -124 64 -17 31 -8 62 18 62 10 0 19 5 19 10 0
9 -14 14 -32 11 -4 0 -2 13 3 29 6 16 8 49 6 75 -7 61 7 67 144 67 60 0 109 4
109 9 0 5 13 9 29 9 17 0 32 4 36 10 3 5 12 7 20 3 9 -3 15 1 15 8 0 15 53 37
108 46 28 4 31 3 26 -12 -7 -17 -6 -17 19 0 15 9 27 22 27 27 0 5 5 6 10 3 6
-3 10 1 10 9 0 19 12 20 28 4 10 -10 11 -6 6 19 -5 25 -3 32 12 36 11 3 0 5
-23 6 -23 0 -43 7 -46 14 -3 9 -12 8 -37 -5 -66 -37 -89 -14 -50 49 10 17 27
36 37 42 12 6 25 35 37 79 20 78 15 116 -13 107 -10 -3 -24 1 -31 10 -14 17
-25 18 -59 4z m-611 -753 c0 -3 -4 -8 -10 -11 -5 -3 -10 -1 -10 4 0 6 5 11 10
11 6 0 10 -2 10 -4z"/>
<path d="M655 3180 c-3 -5 -1 -10 4 -10 6 0 11 5 11 10 0 6 -2 10 -4 10 -3 0
-8 -4 -11 -10z"/>
<path d="M3216 3135 c-21 -19 -35 -39 -31 -45 3 -6 11 -8 16 -5 5 4 9 0 9 -8
0 -13 76 -57 100 -57 7 0 10 -6 7 -14 -3 -7 7 -23 24 -35 26 -19 28 -24 16
-44 -6 -12 -16 -26 -22 -30 -6 -4 -2 -7 9 -5 10 2 21 -3 24 -11 3 -8 0 -11 -6
-7 -17 10 -27 -75 -10 -88 7 -6 12 -19 10 -29 -2 -11 6 -28 18 -39 16 -15 19
-23 10 -28 -9 -5 -9 -9 -1 -14 8 -5 8 -13 1 -26 -6 -11 -8 -31 -4 -44 3 -14 7
-42 7 -62 2 -42 31 -70 46 -45 5 8 7 20 4 27 -3 8 6 14 24 16 l28 4 -35 18
c-21 10 -26 15 -12 12 14 -3 22 1 22 10 0 8 9 14 20 14 11 0 20 5 20 10 0 6
17 10 38 10 20 0 32 4 25 8 -19 12 21 92 45 92 23 0 35 23 21 37 -6 6 -6 20 1
38 11 28 10 28 -12 11 -39 -28 -70 -38 -82 -26 -15 15 -30 12 -17 -3 15 -19 3
-29 -20 -16 -19 10 -27 59 -10 59 6 0 11 17 13 37 3 35 5 38 46 46 32 6 42 13
42 28 0 11 8 23 18 26 9 4 22 11 27 15 69 54 73 59 71 86 -3 22 -8 26 -27 23
-13 -1 -43 -4 -66 -4 -45 -2 -50 -6 -32 -24 16 -16 -12 -43 -45 -43 -16 0 -26
-6 -26 -14 0 -22 -36 -29 -75 -15 -36 14 -46 33 -20 43 15 5 10 36 -6 36 -5 0
-18 9 -29 20 -24 24 -25 36 -4 44 28 11 4 27 -31 20 -22 -4 -45 0 -66 10 -18
9 -33 16 -34 16 0 0 -18 -16 -39 -35z m474 -75 c-19 -13 -30 -13 -30 0 0 6 10
10 23 10 18 0 19 -2 7 -10z m-201 -131 c-20 -13 -38 -11 -54 5 -24 24 3 38 38
19 23 -12 27 -17 16 -24z m-85 -32 c15 -11 15 -15 4 -24 -10 -9 -16 -6 -25 13
-12 27 -6 30 21 11z m61 -216 c3 -6 -4 -9 -15 -8 -11 1 -20 5 -20 9 0 11 28
10 35 -1z"/>
<path d="M13 3133 c-16 -6 -18 -163 -2 -163 5 0 9 8 7 18 -4 27 56 82 92 82
54 0 34 42 -25 53 -16 3 -37 8 -45 11 -8 2 -21 2 -27 -1z"/>
<path d="M716 3124 c-5 -14 -4 -15 9 -4 17 14 19 20 6 20 -5 0 -12 -7 -15 -16z"/>
<path d="M1570 3126 c0 -8 6 -16 14 -19 10 -4 12 0 9 14 -6 22 -23 26 -23 5z"/>
<path d="M1769 3109 c-8 -15 -8 -24 0 -32 8 -8 11 -5 11 11 0 14 9 26 23 32
l22 9 -22 0 c-13 1 -27 -8 -34 -20z"/>
<path d="M628 3043 c7 -3 16 -2 19 1 4 3 -2 6 -13 5 -11 0 -14 -3 -6 -6z"/>
<path d="M605 3020 c-3 -5 3 -10 15 -10 12 0 18 5 15 10 -3 6 -10 10 -15 10
-5 0 -12 -4 -15 -10z"/>
<path d="M223 2936 c-51 -18 -50 -26 5 -26 52 0 64 8 40 27 -9 7 -24 7 -45 -1z"/>
<path d="M345 2934 c-26 -12 -27 -14 -5 -9 14 2 33 5 43 5 9 0 17 5 17 10 0
14 -19 12 -55 -6z"/>
<path d="M3116 2901 c-13 -5 -16 -10 -8 -15 6 -4 24 0 39 8 23 13 24 15 8 15
-11 0 -29 -4 -39 -8z"/>
<path d="M3108 2868 c-16 -5 -28 -14 -28 -19 0 -11 37 -11 63 0 32 12 -2 30
-35 19z"/>
<path d="M1630 2822 c0 -24 16 -37 25 -22 4 6 11 8 16 5 5 -4 9 1 9 9 0 9 -4
16 -9 16 -5 0 -16 3 -25 6 -11 4 -16 0 -16 -14z"/>
<path d="M1571 2794 c0 -11 3 -14 6 -6 3 7 2 16 -1 19 -3 4 -6 -2 -5 -13z"/>
<path d="M3070 2790 c0 -5 7 -10 14 -10 8 0 21 -12 28 -27 8 -16 26 -32 44
-38 16 -5 43 -18 58 -28 15 -10 33 -16 39 -14 7 2 -5 13 -26 23 -22 11 -36 23
-33 31 3 7 1 13 -4 13 -6 0 -10 9 -10 20 0 15 -7 20 -25 20 -14 0 -25 5 -25
10 0 6 -13 10 -30 10 -16 0 -30 -4 -30 -10z"/>
<path d="M3987 2742 c-17 -18 -17 -20 -1 -26 22 -8 26 -3 22 24 -3 22 -3 22
-21 2z"/>
<path d="M1450 2711 c-7 -15 -7 -21 0 -21 12 0 25 28 17 36 -3 3 -10 -4 -17
-15z"/>
<path d="M3013 2651 c-11 -10 -29 -22 -39 -25 -10 -3 9 -4 44 -2 48 3 62 1 62
-10 0 -8 -10 -14 -26 -14 -20 0 -25 -4 -20 -16 4 -9 2 -22 -4 -29 -6 -7 -6
-22 0 -41 5 -16 14 -48 20 -72 6 -23 15 -40 20 -37 11 7 10 64 -2 71 -14 9 -9
41 7 48 8 3 15 10 15 16 0 5 -7 10 -15 10 -8 0 -15 4 -15 10 0 14 39 32 56 26
24 -9 15 11 -17 38 -17 14 -27 30 -24 36 11 18 -41 11 -62 -9z"/>
<path d="M1322 2614 c1 -9 9 -19 16 -22 9 -3 13 2 10 14 -1 9 -9 19 -16 22 -9
3 -13 -2 -10 -14z"/>
<path d="M3535 2562 c-8 -20 5 -32 41 -36 44 -6 43 26 -1 40 -28 9 -35 8 -40
-4z"/>
<path d="M3145 2560 c-3 -5 -1 -10 4 -10 6 0 11 5 11 10 0 6 -2 10 -4 10 -3 0
-8 -4 -11 -10z"/>
<path d="M2968 2547 c-12 -9 -14 -17 -7 -30 15 -26 28 -20 27 13 -1 17 -1 30
-2 30 -1 0 -8 -6 -18 -13z"/>
<path d="M3180 2556 c0 -17 25 -66 36 -70 16 -6 19 9 4 19 -5 3 -10 11 -10 16
0 6 10 3 22 -5 12 -9 29 -16 38 -16 8 0 -1 10 -20 23 -34 23 -70 40 -70 33z"/>
<path d="M1280 2529 c0 -5 5 -7 10 -4 6 3 10 8 10 11 0 2 -4 4 -10 4 -5 0 -10
-5 -10 -11z"/>
<path d="M3670 2520 l-25 -7 30 -8 c17 -4 47 -16 67 -26 39 -20 98 -26 98 -10
0 11 -25 21 -55 21 -34 0 -55 10 -55 26 0 15 -20 17 -60 4z"/>
<path d="M2030 2510 c0 -5 5 -10 10 -10 6 0 10 5 10 10 0 6 -4 10 -10 10 -5 0
-10 -4 -10 -10z"/>
<path d="M3507 2483 c-4 -3 -7 -11 -7 -16 0 -6 3 -8 6 -4 4 3 21 -5 39 -19 24
-18 31 -30 28 -48 -3 -13 0 -26 5 -30 6 -4 8 2 4 16 -4 18 -2 20 16 16 12 -4
22 -2 22 3 0 13 -33 49 -46 49 -6 0 -19 9 -29 20 -19 21 -28 24 -38 13z"/>
<path d="M2891 2464 c0 -11 3 -14 6 -6 3 7 2 16 -1 19 -3 4 -6 -2 -5 -13z"/>
<path d="M2954 2468 c-6 -7 -9 -31 -8 -53 4 -48 -17 -97 -51 -119 -22 -15 -38
-55 -16 -42 11 7 41 -37 41 -59 0 -8 5 -15 11 -15 8 0 9 13 5 41 -7 43 8 69
39 69 13 0 15 5 10 18 -10 22 -10 37 -2 92 9 52 -10 94 -29 68z"/>
<path d="M3400 2475 c0 -4 7 -19 15 -34 8 -16 11 -32 7 -36 -4 -5 -2 -5 5 -1
7 4 17 -3 24 -16 7 -13 17 -26 22 -30 8 -5 48 6 66 19 2 1 -11 23 -30 47 -23
31 -39 44 -51 40 -9 -3 -19 0 -23 6 -6 10 -35 14 -35 5z"/>
<path d="M2396 2442 c-3 -6 3 -12 15 -15 12 -3 19 -1 16 6 -5 15 -24 20 -31 9z"/>
<path d="M3817 2436 c-15 -6 -27 -16 -27 -23 0 -19 -28 -27 -45 -13 -7 6 -26
10 -42 8 -28 -3 -27 -4 15 -26 38 -21 43 -27 41 -55 -1 -18 1 -40 5 -49 3 -10
9 -26 13 -35 3 -10 7 -31 8 -46 2 -16 8 -34 14 -40 7 -7 9 -3 5 16 -5 32 6 35
26 6 8 -12 20 -27 26 -33 6 -6 9 -18 7 -26 -4 -13 -3 -13 7 0 9 11 13 12 17 3
9 -23 31 -14 45 17 7 17 17 30 21 30 5 0 6 -4 3 -9 -11 -18 6 -41 30 -41 20 0
24 5 24 28 0 15 -7 40 -15 56 -18 35 -18 36 0 36 11 0 14 13 14 54 -1 48 -4
55 -23 58 -13 2 -21 11 -22 23 -2 40 -5 45 -33 59 -31 16 -71 17 -114 2z m43
-68 c0 -9 3 -9 9 1 8 12 12 12 26 -2 15 -15 15 -17 1 -17 -9 0 -16 -4 -16 -10
0 -15 -16 -12 -34 6 -20 20 -20 34 -1 34 8 0 15 -6 15 -12z m110 -109 c0 -4
-8 -7 -17 -7 -10 0 -22 0 -28 -2 -19 -5 -33 0 -38 15 -5 11 -1 12 18 5 18 -7
25 -5 29 7 5 12 9 13 21 3 8 -7 15 -16 15 -21z m-75 -81 c10 -15 11 -24 5 -26
-14 -5 -51 28 -44 39 9 15 22 10 39 -13z"/>
<path d="M2316 2418 c3 -4 9 -8 15 -8 5 0 9 4 9 8 0 5 -7 9 -15 9 -8 0 -12 -4
-9 -9z"/>
<path d="M2737 2403 c13 -36 46 -45 41 -10 -2 14 -11 23 -25 25 -18 3 -22 0
-16 -15z"/>
<path d="M1740 2370 c0 -5 5 -10 10 -10 6 0 10 5 10 10 0 6 -4 10 -10 10 -5 0
-10 -4 -10 -10z"/>
<path d="M3060 2362 c0 -5 7 -17 15 -28 15 -19 20 -8 9 20 -6 17 -24 22 -24 8z"/>
<path d="M2755 2290 c3 -5 10 -10 16 -10 5 0 9 5 9 10 0 6 -7 10 -16 10 -8 0
-12 -4 -9 -10z"/>
<path d="M777 2263 c-4 -3 -7 -13 -7 -22 0 -8 -10 -25 -22 -38 -18 -20 -13
-35 6 -16 13 13 39 12 60 -3 34 -24 46 -17 46 26 0 43 -26 70 -48 48 -9 -9
-12 -9 -12 0 0 13 -13 16 -23 5z"/>
<path d="M2731 2254 c0 -11 3 -14 6 -6 3 7 2 16 -1 19 -3 4 -6 -2 -5 -13z"/>
<path d="M2806 2228 c-9 -34 -8 -37 14 -31 11 3 20 12 20 19 0 8 5 14 11 14 5
0 7 5 4 10 -11 18 -43 10 -49 -12z"/>
<path d="M663 2183 c-8 -21 -20 -41 -25 -44 -12 -7 -1 -49 12 -49 5 0 11 4 15
10 3 5 13 6 21 3 10 -4 15 -1 13 8 -1 8 1 26 5 41 9 30 0 68 -15 68 -6 0 -17
-17 -26 -37z"/>
<path d="M950 2208 c0 -22 35 -87 45 -84 19 5 16 42 -5 69 -23 28 -40 35 -40
15z"/>
<path d="M2287 2126 c-23 -23 -128 -69 -162 -70 -17 -1 -41 -9 -54 -18 -22
-15 -24 -25 -26 -107 -1 -78 -4 -94 -23 -114 -34 -36 -28 -55 24 -77 41 -18
44 -21 30 -36 -9 -8 -19 -26 -22 -40 -3 -13 -10 -24 -15 -24 -8 0 -29 62 -29
87 0 18 -19 26 -35 13 -21 -17 -30 68 -16 149 7 37 9 74 5 84 -3 9 1 28 9 41
9 13 13 27 9 31 -4 4 -7 12 -7 18 0 7 -22 23 -48 36 -45 22 -51 23 -108 11
-33 -7 -68 -20 -76 -29 -9 -8 -34 -17 -56 -18 -53 -4 -95 -32 -159 -104 -54
-62 -72 -94 -63 -110 3 -4 -3 -17 -15 -29 -11 -11 -20 -33 -20 -48 0 -15 -9
-46 -20 -67 -11 -22 -22 -51 -24 -65 -4 -38 -34 -102 -56 -122 -25 -24 -27
-68 -2 -69 13 0 12 -2 -5 -9 -13 -5 -23 -16 -23 -24 0 -7 -9 -16 -20 -19 -15
-4 -20 -14 -20 -37 0 -25 -4 -31 -15 -26 -11 4 -25 -13 -49 -62 -19 -37 -51
-83 -71 -102 -20 -19 -47 -54 -61 -77 -14 -24 -31 -43 -38 -43 -17 0 -188
-178 -203 -212 -7 -16 -19 -31 -28 -34 -8 -3 -15 -13 -15 -21 0 -7 -11 -25
-25 -39 -17 -17 -24 -32 -20 -45 4 -11 2 -19 -4 -19 -6 0 -11 5 -11 12 0 22
-40 -32 -47 -62 -3 -17 -10 -33 -14 -36 -17 -10 -9 -24 14 -24 15 0 24 -6 24
-16 0 -12 -8 -15 -33 -12 -22 3 -35 -1 -39 -10 -8 -22 -6 -62 4 -62 9 0 7 -68
-3 -77 -3 -3 -7 6 -11 21 -18 88 -15 83 -30 62 -8 -10 -25 -24 -37 -30 -18 -9
-24 -21 -26 -60 -2 -27 2 -54 8 -60 8 -8 10 -6 5 9 -6 19 -6 19 6 1 8 -13 11
-66 10 -168 -1 -88 2 -147 7 -144 5 3 7 16 5 30 -3 13 -1 26 4 29 5 3 8 -14 7
-39 l-3 -44 85 0 84 0 0 36 c0 19 4 33 9 29 5 -3 12 7 14 22 l4 28 2 -28 c1
-37 21 -25 21 13 0 47 -9 63 -28 48 -11 -9 -14 -9 -9 -1 4 7 1 43 -8 80 -10
45 -12 69 -5 71 5 2 10 10 10 18 0 8 5 14 11 14 7 0 9 -11 6 -29 -7 -36 3
-102 14 -95 4 2 4 16 -2 31 -6 17 -6 30 1 38 12 15 10 125 -2 125 -5 0 -8 -5
-8 -12 0 -9 -3 -9 -11 -1 -17 17 -19 94 -3 110 21 21 28 82 18 145 -8 46 -7
58 3 58 8 0 13 -14 13 -38 0 -21 3 -42 7 -46 10 -10 4 -79 -8 -90 -5 -6 -8
-21 -8 -35 1 -20 2 -21 6 -7 4 15 7 16 14 5 6 -10 9 -7 9 12 0 14 4 29 9 35 5
5 12 23 14 39 3 17 4 -5 3 -47 l-1 -78 60 -1 c96 -1 239 -9 253 -14 9 -3 12
-25 11 -78 -3 -76 3 -97 26 -97 7 0 60 -15 117 -34 64 -21 107 -31 113 -25 13
13 69 11 83 -3 7 -7 12 -25 12 -40 0 -32 14 -35 86 -17 36 9 44 16 44 34 0 36
10 55 30 55 22 0 30 -19 30 -70 0 -39 0 -39 37 -36 21 2 39 9 41 15 2 6 12 11
23 11 16 0 19 7 19 53 0 51 13 88 25 75 4 -3 11 -52 16 -109 6 -60 15 -107 22
-111 9 -6 9 -10 -1 -16 -7 -5 -10 -16 -7 -24 5 -12 26 -16 105 -17 56 -1 108
3 120 9 11 6 20 7 20 3 0 -4 20 -8 44 -9 l44 -1 -6 235 c-4 176 -2 233 6 228
15 -9 16 38 1 65 -6 12 -12 42 -13 67 -1 26 -8 58 -15 71 -8 14 -10 35 -6 55
4 17 10 74 13 126 l7 95 12 -130 c7 -71 15 -177 19 -235 3 -58 7 -112 10 -120
3 -12 22 -15 91 -15 49 -1 282 -4 518 -7 693 -11 716 -11 722 -5 3 4 -6 11
-20 18 -13 6 -31 22 -38 35 -7 15 -27 28 -50 34 -21 6 -40 18 -43 28 -4 9 -44
57 -91 106 -47 49 -85 95 -85 103 0 7 -11 18 -25 23 -14 5 -25 14 -25 20 0 12
-77 127 -90 135 -5 3 -39 7 -76 9 -59 3 -70 7 -87 30 -12 17 -32 28 -58 32
l-39 7 5 69 c5 78 3 81 -100 158 -28 20 -56 44 -64 53 -7 10 -26 17 -42 17
-18 0 -29 5 -29 13 0 8 -9 22 -20 32 -11 10 -20 24 -20 30 0 19 -24 25 -113
26 -130 2 -160 16 -37 18 126 2 145 9 111 45 -13 13 -21 31 -19 38 3 7 -2 18
-11 25 -13 9 -14 16 -4 42 10 29 9 33 -13 48 -20 12 -25 23 -22 48 2 25 -6 41
-30 69 -37 43 -36 37 -17 83 22 52 19 80 -15 130 -32 46 -37 63 -20 63 7 0 7
4 0 13 -6 6 -21 32 -33 57 -25 50 -38 58 -60 36z m-142 -298 c3 -34 2 -58 -4
-58 -23 0 -48 154 -29 177 6 8 6 13 1 13 -13 0 -11 43 2 52 6 5 13 -18 17 -60
4 -37 9 -93 13 -124z m9 -146 c4 -32 3 -51 -2 -48 -12 7 -23 73 -15 92 8 21 9
16 17 -44z m-174 34 c0 -3 -4 -8 -10 -11 -5 -3 -10 -1 -10 4 0 6 5 11 10 11 6
0 10 -2 10 -4z m184 -237 c4 -39 5 -73 2 -77 -3 -3 -6 7 -6 22 0 15 -4 25 -8
22 -4 -2 -8 20 -8 50 1 76 12 67 20 -17z m-77 -21 c-3 -8 -6 -5 -6 6 -1 11 2
17 5 13 3 -3 4 -12 1 -19z m123 -28 c0 -5 -5 -10 -11 -10 -5 0 -7 5 -4 10 3 6
8 10 11 10 2 0 4 -4 4 -10z m80 -6 c0 -2 -16 -4 -35 -4 -19 0 -35 4 -35 8 0 4
16 6 35 4 19 -2 35 -6 35 -8z m-156 -112 c3 -31 10 -113 16 -182 5 -69 12
-147 15 -175 4 -27 2 -61 -3 -75 l-9 -25 -18 35 c-10 19 -24 39 -33 44 -12 7
-12 10 -1 17 10 6 11 11 3 17 -20 13 -26 76 -9 97 8 11 15 28 15 38 0 9 4 17
9 17 11 0 21 62 11 75 -13 18 -30 76 -20 70 16 -10 11 42 -5 55 -8 7 -15 28
-15 48 0 34 1 34 19 18 12 -11 21 -37 25 -74z m50 -173 c3 -88 2 -127 -3 -99
-13 68 -23 289 -12 264 5 -11 11 -85 15 -165z m-1027 -213 c-2 -6 -12 -10 -22
-8 -11 2 -14 -1 -10 -9 5 -7 3 -9 -6 -5 -8 3 -22 9 -31 12 -18 6 -23 16 -14
25 10 10 87 -4 83 -15z m-117 -77 c0 -16 -4 -28 -9 -25 -8 5 -3 56 5 56 2 0 4
-14 4 -31z m86 16 c4 -8 3 -27 -1 -42 -5 -21 -8 -24 -16 -12 -12 19 -11 69 1
69 6 0 13 -7 16 -15z m-300 -151 c-3 -9 -6 -32 -6 -52 0 -28 -3 -33 -10 -22
-5 8 -10 32 -10 53 0 27 4 37 16 37 11 0 14 -5 10 -16z m1324 -39 c0 -8 -2
-15 -4 -15 -2 0 -6 7 -10 15 -3 8 -1 15 4 15 6 0 10 -7 10 -15z m-1393 -117
c-3 -7 -5 -2 -5 12 0 14 2 19 5 13 2 -7 2 -19 0 -25z m1092 -68 l-1 -35 -8 30
c-4 17 -8 39 -9 50 -1 16 1 17 9 5 5 -8 9 -31 9 -50z m-1182 -52 c-3 -8 -6 -5
-6 6 -1 11 2 17 5 13 3 -3 4 -12 1 -19z m1389 -73 c-4 -25 -11 -45 -15 -45 -9
0 -6 74 4 90 13 21 17 1 11 -45z m-1382 3 c-1 -24 -2 -64 -3 -90 -1 -38 -4
-46 -18 -43 -15 2 -18 11 -16 49 2 29 -1 45 -7 41 -6 -4 -10 7 -10 25 0 18 4
29 10 25 6 -3 10 2 11 12 0 16 1 16 9 -2 8 -19 9 -19 9 3 1 12 5 22 9 22 4 0
7 -19 6 -42z m1486 2 c0 -5 -2 -10 -4 -10 -3 0 -8 5 -11 10 -3 6 -1 10 4 10 6
0 11 -4 11 -10z m-9 -39 c4 -30 3 -101 -2 -101 -3 0 -4 -31 -2 -69 4 -75 -11
-106 -20 -41 -5 40 -31 78 -41 61 -3 -5 1 -14 9 -21 8 -7 15 -19 15 -28 0 -12
-4 -11 -20 5 -14 16 -19 34 -18 67 2 46 18 66 18 23 0 -23 17 -47 32 -47 4 0
8 7 8 15 0 8 -4 15 -8 15 -6 0 -9 105 -3 132 1 9 31 -1 32 -11z m-1436 -20 c3
-5 1 -12 -4 -16 -7 -4 -7 -15 -1 -31 10 -26 13 -70 3 -46 -2 6 -11 12 -19 12
-15 0 -17 12 -8 59 6 31 18 39 29 22z m1152 -13 c-3 -8 -6 -5 -6 6 -1 11 2 17
5 13 3 -3 4 -12 1 -19z m-1256 -31 c-8 -8 -11 -5 -11 9 0 27 14 41 18 19 2 -9
-1 -22 -7 -28z m1419 3 l-8 -35 -1 31 c-1 17 2 34 6 37 11 12 12 3 3 -33z
m-1450 -41 c0 -16 4 -20 18 -14 13 5 14 3 5 -6 -6 -6 -9 -27 -6 -48 3 -27 2
-32 -6 -21 -9 12 -11 11 -11 -8 0 -13 -4 -20 -10 -17 -5 3 -10 35 -10 71 0 36
4 64 10 64 6 0 10 -9 10 -21z m1610 -51 c0 -9 -4 -20 -10 -23 -6 -4 -10 9 -10
32 0 28 3 34 10 23 5 -8 10 -23 10 -32z m-1520 -4 c0 -8 -4 -14 -10 -14 -5 0
-10 9 -10 21 0 11 5 17 10 14 6 -3 10 -13 10 -21z m27 -41 c-3 -10 -5 -2 -5
17 0 19 2 27 5 18 2 -10 2 -26 0 -35z m40 -15 c-2 -13 -4 -5 -4 17 -1 22 1 32
4 23 2 -10 2 -28 0 -40z m-90 -30 c-3 -8 -6 -5 -6 6 -1 11 2 17 5 13 3 -3 4
-12 1 -19z m1473 6 c0 -8 -4 -12 -10 -9 -5 3 -10 10 -10 16 0 5 5 9 10 9 6 0
10 -7 10 -16z"/>
<path d="M2100 1046 c0 -9 5 -16 10 -16 6 0 10 4 10 9 0 6 -4 13 -10 16 -5 3
-10 -1 -10 -9z"/>
<path d="M2760 2130 c0 -5 5 -10 10 -10 6 0 10 5 10 10 0 6 -4 10 -10 10 -5 0
-10 -4 -10 -10z"/>
<path d="M3361 2133 c-1 -18 19 -67 25 -61 3 3 -2 21 -10 39 -8 19 -15 29 -15
22z"/>
<path d="M3940 2098 c1 -33 24 -77 36 -66 7 8 -14 86 -26 93 -6 4 -10 -8 -10
-27z"/>
<path d="M929 2087 c10 -40 29 -77 41 -77 5 0 21 -11 36 -25 15 -14 32 -25 39
-25 20 0 43 -33 50 -72 7 -38 39 -77 52 -64 4 4 0 21 -9 37 -11 18 -15 40 -12
57 9 43 -32 95 -83 105 -33 6 -48 17 -75 52 -18 24 -36 45 -39 45 -4 0 -4 -15
0 -33z"/>
<path d="M1031 2111 c-10 -7 -11 -13 -2 -30 17 -30 33 -26 25 7 -8 34 -7 32
-23 23z"/>
<path d="M1140 2103 c-20 -8 -40 -29 -40 -42 0 -14 17 -14 22 0 2 6 14 2 30
-10 32 -26 62 -18 52 13 -13 42 -29 52 -64 39z"/>
<path d="M1076 2085 c4 -8 8 -15 10 -15 2 0 4 7 4 15 0 8 -4 15 -10 15 -5 0
-7 -7 -4 -15z"/>
<path d="M2712 2070 c0 -14 2 -19 5 -12 2 6 2 18 0 25 -3 6 -5 1 -5 -13z"/>
<path d="M820 2066 c0 -9 5 -16 10 -16 6 0 10 4 10 9 0 6 -4 13 -10 16 -5 3
-10 -1 -10 -9z"/>
<path d="M627 2053 c-4 -3 -7 -11 -7 -17 0 -6 5 -5 12 2 6 6 9 14 7 17 -3 3
-9 2 -12 -2z"/>
<path d="M750 2028 c0 -20 4 -39 9 -42 5 -4 12 -29 16 -58 7 -45 9 -50 20 -34
10 13 14 14 19 4 3 -7 3 5 0 27 -4 22 -13 51 -22 65 -9 14 -22 36 -29 50 -13
25 -13 25 -13 -12z"/>
<path d="M3481 2049 c-1 -8 6 -24 15 -35 15 -19 15 -19 6 1 -5 11 -12 27 -15
35 -5 13 -6 13 -6 -1z"/>
<path d="M2665 2018 c-4 -10 0 -27 9 -40 l16 -22 0 24 c0 14 -4 32 -10 40 -8
12 -10 12 -15 -2z"/>
<path d="M3952 1978 c-7 -7 -12 -39 -12 -71 l0 -59 -29 5 c-23 5 -31 2 -35
-11 -7 -21 -52 -43 -72 -35 -8 3 -14 -1 -14 -10 0 -22 -109 -15 -126 7 -13 18
-52 26 -54 11 0 -5 8 -11 20 -13 16 -3 20 -11 20 -41 0 -23 -6 -44 -15 -51
-11 -9 -13 -16 -5 -24 17 -17 12 -29 -10 -23 -15 4 -20 0 -20 -14 0 -12 -11
-24 -27 -30 -47 -19 -76 -14 -103 18 -14 16 -34 34 -45 39 -16 7 -11 9 25 12
25 1 60 10 78 18 29 13 31 18 20 31 -12 15 -13 15 -16 0 -5 -25 -29 -21 -36 6
-10 36 -7 42 24 60 23 14 30 25 30 49 0 17 -3 28 -6 25 -4 -4 -22 10 -40 30
-31 33 -47 37 -50 12 -1 -5 -2 -15 -3 -21 -1 -7 -13 -1 -26 15 l-24 28 -7 -27
c-5 -19 -11 -24 -26 -21 -19 5 -66 -30 -61 -45 5 -14 -26 -16 -31 -2 -3 9 -10
13 -15 9 -5 -3 -12 -2 -15 3 -4 7 -28 8 -73 3 -15 -1 -18 -31 -3 -31 27 0 -7
-84 -38 -92 -11 -3 -26 -19 -35 -37 -15 -30 -15 -32 15 -61 16 -17 33 -43 37
-58 4 -15 13 -27 19 -27 6 0 17 -6 23 -12 10 -10 16 -9 30 3 25 22 48 11 55
-26 5 -23 12 -30 29 -30 13 0 26 7 29 16 8 21 8 20 -8 37 -21 21 -24 121 -3
141 20 20 27 20 27 1 0 -9 11 -20 25 -25 15 -6 25 -17 25 -29 0 -14 5 -19 15
-14 9 3 22 -2 29 -12 8 -12 21 -16 35 -12 16 4 22 0 27 -19 3 -13 10 -21 15
-18 18 11 22 -29 5 -56 -18 -31 -21 -54 -6 -45 6 3 10 -1 10 -9 0 -21 -44 -66
-64 -66 -9 0 -16 -8 -16 -19 0 -33 -40 -110 -60 -116 -23 -7 -26 -37 -6 -55 8
-6 16 -21 18 -32 2 -14 12 -22 28 -25 13 -2 29 -8 34 -13 4 -4 15 -6 22 -3 8
3 17 -2 20 -11 3 -9 17 -16 30 -16 13 0 24 -4 24 -10 0 -5 -7 -10 -15 -10 -9
0 -15 -10 -15 -26 0 -33 33 -30 38 4 4 27 19 29 27 2 3 -11 13 -20 21 -20 8 0
14 -6 14 -12 0 -7 14 -42 31 -78 16 -35 28 -72 26 -81 -6 -22 8 -43 22 -35 15
10 14 48 -3 93 -7 21 -19 57 -25 81 -7 23 -16 42 -21 42 -5 0 -18 18 -29 40
-16 33 -17 40 -5 40 9 0 13 4 10 9 -3 5 3 11 14 14 15 4 22 -1 27 -21 6 -26
70 -102 86 -102 4 0 5 11 1 24 -4 16 -1 25 10 29 18 7 11 63 -11 85 -11 11
-13 7 -13 -22 0 -29 -4 -36 -19 -36 -24 0 -35 25 -32 75 3 50 8 55 21 21 9
-26 10 -26 35 -10 24 16 25 16 25 -6 0 -30 38 -59 78 -60 30 0 32 2 22 20 -6
11 -17 20 -25 20 -8 0 -15 7 -15 15 0 11 7 13 29 9 28 -6 30 -5 36 40 8 51 19
65 33 40 8 -13 13 -14 31 -4 23 12 23 12 -10 28 -39 20 -49 42 -20 42 12 0 21
5 21 10 0 14 -47 61 -57 59 -16 -4 -43 13 -43 27 0 10 8 12 30 8 33 -7 36 -3
18 26 -16 25 -3 38 22 22 23 -14 56 -16 64 -4 3 5 -6 21 -20 37 -37 43 -30 60
13 30 l22 -15 1 186 c0 124 -3 183 -10 179 -5 -3 -10 -2 -10 4 0 5 5 13 10 16
24 15 4 75 -25 75 -6 0 -16 -5 -23 -12z m-237 -216 c0 -18 -20 -15 -23 4 -3
10 1 15 10 12 7 -3 13 -10 13 -16z m-455 -12 c0 -5 -4 -10 -10 -10 -5 0 -10 5
-10 10 0 6 5 10 10 10 6 0 10 -4 10 -10z m197 -12 c-3 -8 -6 -5 -6 6 -1 11 2
17 5 13 3 -3 4 -12 1 -19z m-257 2 c0 -5 -4 -10 -10 -10 -5 0 -10 5 -10 10 0
6 5 10 10 10 6 0 10 -4 10 -10z m74 -61 c-9 -15 -23 -10 -34 11 -17 32 0 47
22 21 10 -13 15 -27 12 -32z m-75 22 c21 -13 -4 -41 -35 -41 -26 0 -31 19 -12
38 14 14 28 15 47 3z m41 -76 c0 -8 -4 -15 -10 -15 -5 0 -7 7 -4 15 4 8 8 15
10 15 2 0 4 -7 4 -15z m755 -15 c-3 -5 -12 -10 -18 -10 -7 0 -6 4 3 10 19 12
23 12 15 0z m-80 -99 c-6 -5 -25 10 -25 20 0 5 6 4 14 -3 8 -7 12 -15 11 -17z
m-46 -130 c12 -22 3 -61 -14 -61 -16 0 -30 33 -16 38 7 2 5 15 -5 33 -15 30
-15 30 5 19 11 -6 25 -19 30 -29z m-81 -85 c3 -20 0 -27 -10 -24 -7 3 -14 17
-16 32 -3 20 0 27 10 24 7 -3 14 -17 16 -32z m90 -49 c13 -49 9 -56 -17 -33
-11 10 -24 15 -30 12 -5 -4 -15 3 -22 16 -9 17 -9 23 0 26 7 2 17 10 24 17 19
20 34 7 45 -38z m-338 -43 c0 -14 -3 -14 -15 -4 -8 7 -15 14 -15 16 0 2 7 4
15 4 8 0 15 -7 15 -16z m65 -71 c-6 -16 -8 -15 -16 6 -6 14 -7 32 -3 40 5 13
8 12 16 -6 6 -12 7 -30 3 -40z"/>
<path d="M3540 1911 c0 -5 5 -13 10 -16 6 -3 10 -2 10 4 0 5 -4 13 -10 16 -5
3 -10 2 -10 -4z"/>
<path d="M3073 1873 c-7 -15 -11 -28 -9 -31 6 -6 28 38 24 48 -2 5 -9 -3 -15
-17z"/>
<path d="M3580 1871 c0 -5 7 -12 16 -15 22 -9 24 -8 18 9 -7 16 -34 21 -34 6z"/>
<path d="M3037 1823 c-4 -3 -7 -13 -7 -22 1 -13 3 -13 11 2 11 19 8 33 -4 20z"/>
<path d="M298 1720 c2 -16 9 -30 14 -30 13 0 6 53 -8 57 -7 2 -9 -8 -6 -27z"/>
<path d="M3040 1723 c0 -4 9 -14 21 -21 18 -12 20 -11 17 5 -3 17 -38 32 -38
16z"/>
<path d="M16 1705 c4 -8 8 -15 10 -15 2 0 4 7 4 15 0 8 -4 15 -10 15 -5 0 -7
-7 -4 -15z"/>
<path d="M310 1671 c0 -5 5 -13 10 -16 6 -4 8 -11 4 -16 -3 -5 -1 -16 5 -23 6
-7 9 -20 6 -27 -3 -9 5 -18 24 -25 28 -11 28 -11 26 20 -2 17 -3 34 -4 37 -2
12 -71 60 -71 50z"/>
<path d="M10 1652 c-6 -2 -10 -91 -10 -241 l0 -238 23 1 c19 1 22 -3 20 -36
-2 -28 2 -38 12 -38 8 0 15 -8 16 -17 0 -10 5 -5 10 12 5 19 5 31 -2 36 -8 4
-6 16 4 35 l15 29 7 -27 c4 -15 4 -32 -1 -39 -4 -7 -3 -9 4 -5 6 3 14 1 18 -5
3 -6 1 -15 -7 -19 -10 -7 -10 -11 0 -24 17 -20 44 -2 37 23 -3 10 7 25 29 41
21 15 35 34 35 47 0 12 8 29 17 39 16 16 16 18 -5 34 -30 25 -28 36 15 75 l36
33 28 -20 c15 -12 33 -35 40 -52 7 -17 23 -44 36 -59 13 -16 23 -36 23 -45 1
-22 28 -58 37 -49 4 4 2 22 -4 40 -6 17 -14 46 -18 64 -4 20 -27 53 -62 88
-45 47 -54 61 -50 83 3 17 -2 35 -14 51 -10 13 -19 32 -19 43 0 14 -5 18 -19
13 -12 -4 -30 4 -52 22 -21 18 -34 24 -37 15 -2 -6 -8 -12 -14 -12 -7 0 -6 5
1 14 8 10 9 16 1 21 -6 3 -8 10 -5 15 6 10 -53 55 -61 47 -3 -3 0 -15 6 -28
11 -19 10 -21 -5 -16 -9 4 -19 7 -21 7 -2 0 -4 11 -4 24 0 19 -5 24 -25 22
-14 0 -29 -2 -35 -4z m230 -279 c0 -37 -24 -22 -26 16 -1 26 1 29 12 20 8 -6
14 -23 14 -36z m-79 -26 c-8 -8 -11 -7 -11 4 0 20 13 34 18 19 3 -7 -1 -17 -7
-23z m10 -155 c-6 -2 -11 -18 -12 -35 0 -18 -3 -26 -6 -19 -4 10 -8 10 -19 1
-17 -14 -18 -3 -3 39 6 18 15 30 19 27 5 -3 12 5 16 17 l8 23 4 -25 c2 -13 -1
-26 -7 -28z"/>
<path d="M392 1653 c-9 -3 -7 -12 8 -33 22 -31 26 -50 10 -50 -14 0 -13 -36 2
-63 15 -29 78 -90 85 -83 3 3 -9 22 -26 42 -21 24 -31 43 -28 56 3 11 -1 35
-9 54 -8 19 -12 39 -9 44 6 10 -4 40 -14 39 -3 0 -12 -3 -19 -6z"/>
<path d="M280 1575 c0 -8 4 -15 9 -15 5 0 11 7 15 15 3 9 0 15 -9 15 -8 0 -15
-7 -15 -15z"/>
<path d="M370 1406 c0 -7 7 -19 15 -26 16 -13 20 -3 9 24 -8 20 -24 21 -24 2z"/>
<path d="M3937 1400 c3 -11 12 -20 19 -20 20 0 17 18 -5 29 -16 9 -18 8 -14
-9z"/>
<path d="M258 1283 c-2 -5 -3 -39 -2 -78 2 -105 18 -158 39 -125 14 23 36 7
57 -41 20 -45 23 -48 30 -28 6 15 4 27 -7 39 -8 9 -15 22 -15 28 0 6 -13 21
-30 34 -16 12 -30 27 -30 34 0 7 -6 14 -12 17 -9 3 -6 10 8 21 21 15 21 17 7
61 -14 40 -36 59 -45 38z"/>
<path d="M3911 1163 c0 -4 4 -17 9 -28 8 -19 9 -19 9 2 1 12 -3 25 -9 28 -5 3
-10 3 -9 -2z"/>
<path d="M3984 1156 c-14 -15 -24 -56 -14 -56 5 0 15 -3 24 -6 12 -5 16 0 16
22 0 38 -11 56 -26 40z"/>
<path d="M6 1141 c-4 -5 -5 -32 -4 -60 2 -33 5 -46 11 -36 4 8 6 19 2 24 -3 5
-1 12 5 16 13 8 13 52 1 60 -5 3 -12 1 -15 -4z"/>
<path d="M3600 1006 c0 -9 5 -16 10 -16 6 0 10 4 10 9 0 6 -4 13 -10 16 -5 3
-10 -1 -10 -9z"/>
<path d="M307 993 c-3 -5 -5 -45 -4 -90 2 -68 4 -76 13 -54 6 14 9 34 6 44 -2
9 1 31 8 48 11 26 11 33 -2 46 -9 8 -18 11 -21 6z"/>
<path d="M370 947 c0 -23 9 -44 28 -65 16 -18 32 -32 35 -32 12 0 7 18 -9 34
-8 9 -13 24 -10 34 4 11 -2 27 -14 40 -27 29 -30 28 -30 -11z"/>
<path d="M3622 915 c0 -16 2 -22 5 -12 2 9 2 23 0 30 -3 6 -5 -1 -5 -18z"/>
<path d="M3757 840 c7 -26 29 -44 38 -30 3 5 -1 13 -9 16 -9 3 -16 12 -16 20
0 8 -4 14 -9 14 -5 0 -7 -9 -4 -20z"/>
<path d="M3870 740 c0 -5 5 -10 11 -10 5 0 7 5 4 10 -3 6 -8 10 -11 10 -2 0
-4 -4 -4 -10z"/>
<path d="M3863 679 c4 -13 7 -32 7 -42 0 -10 4 -16 9 -13 13 9 7 69 -8 74 -10
3 -12 -1 -8 -19z"/>
<path d="M807 464 c-3 -4 -2 -15 4 -26 5 -10 6 -24 2 -31 -8 -12 -7 -24 3 -85
4 -28 7 -31 19 -18 18 17 20 111 4 121 -6 4 -14 16 -18 26 -4 11 -10 17 -14
13z"/>
<path d="M2438 283 c7 -3 16 -2 19 1 4 3 -2 6 -13 5 -11 0 -14 -3 -6 -6z"/>
<path d="M3488 263 c7 -3 16 -2 19 1 4 3 -2 6 -13 5 -11 0 -14 -3 -6 -6z"/>
<path d="M798 193 c-2 -16 -1 -59 3 -98 l6 -70 1 98 c2 95 -2 124 -10 70z"/>
<path d="M3820 130 c0 -69 31 -130 66 -130 14 0 23 4 19 10 -4 6 -10 8 -15 5
-9 -6 -30 25 -30 44 0 6 7 8 16 4 11 -4 15 -1 13 11 -2 9 -8 17 -14 18 -5 0
-14 18 -20 41 -15 61 -35 60 -35 -3z"/>
<path d="M752 24 c1 -9 9 -19 16 -22 9 -3 13 2 10 14 -1 9 -9 19 -16 22 -9 3
-13 -2 -10 -14z"/>
<path d="M3940 10 c0 -5 5 -10 10 -10 6 0 10 5 10 10 0 6 -4 10 -10 10 -5 0
-10 -4 -10 -10z"/>
</g>
</svg>
